<?xml version="1.0" standalone="no"?>
<!DOCTYPE svg PUBLIC "-//W3C//DTD SVG 20010904//EN"
 "http://www.w3.org/TR/2001/REC-SVG-20010904/DTD/svg10.dtd">
<svg version="1.0" xmlns="http://www.w3.org/2000/svg"
 width="100.000000pt" height="100.000000pt" viewBox="0 0 100.000000 100.000000"
 preserveAspectRatio="xMidYMid meet">

<g transform="translate(0.000000,100.000000) scale(0.100000,-0.100000)"
fill="#000000" stroke="none">
<path d="M422 967 c-18 -17 -48 -47 -67 -65 -19 -19 -40 -52 -47 -75 -6 -23
-17 -49 -25 -58 -17 -21 -17 -54 2 -69 8 -7 15 -26 15 -42 0 -17 9 -38 23 -51
13 -12 27 -34 31 -49 3 -15 22 -42 41 -61 19 -19 35 -37 35 -41 0 -3 -13 -6
-29 -6 -41 0 -155 -37 -179 -58 -15 -13 -24 -47 -41 -153 -28 -178 -27 -193 5
-218 26 -20 38 -21 314 -21 381 0 360 -16 319 242 -16 104 -25 137 -41 150
-24 21 -138 58 -179 58 -16 0 -29 3 -29 6 0 4 16 22 35 41 19 19 38 46 41 61
4 15 18 37 31 49 14 13 23 34 23 51 0 16 7 35 15 42 19 15 19 48 2 69 -8 9
-19 35 -26 58 -7 25 -27 57 -49 78 -20 19 -51 49 -68 65 -24 24 -39 30 -75 30
-36 0 -50 -6 -77 -33z m118 -39 c0 -70 -9 -88 -40 -88 -31 0 -40 18 -40 88 l0
42 40 0 40 0 0 -42z m-95 -107 c3 -6 29 -11 56 -11 44 0 51 3 59 26 6 14 10
39 10 57 0 47 18 20 22 -33 4 -53 29 -63 39 -15 l6 30 16 -37 c10 -21 17 -42
17 -48 0 -6 -60 -10 -170 -10 -110 0 -170 4 -170 10 0 6 7 27 17 48 l16 37 6
-30 c9 -45 35 -39 39 10 4 64 14 74 23 23 4 -26 10 -52 14 -57z m255 -86 c0
-13 -29 -15 -200 -15 -171 0 -200 2 -200 15 0 13 29 15 200 15 171 0 200 -2
200 -15z m-80 -109 c0 -55 -4 -69 -26 -95 -49 -59 -139 -59 -188 0 -22 26 -26
40 -26 95 l0 64 120 0 120 0 0 -64z m-283 22 c-3 -7 -5 -2 -5 12 0 14 2 19 5
13 2 -7 2 -19 0 -25z m330 0 c-3 -7 -5 -2 -5 12 0 14 2 19 5 13 2 -7 2 -19 0
-25z m-129 -208 c-2 -10 -15 -15 -38 -15 -23 0 -36 5 -38 15 -2 12 7 15 38 15
31 0 40 -3 38 -15z m-84 -57 c19 -28 23 -40 14 -50 -9 -11 -16 -7 -34 21 -25
36 -31 66 -14 66 5 0 21 -17 34 -37z m-77 10 c5 -14 53 -92 69 -112 2 -2 10 2
19 9 13 11 15 6 15 -35 l0 -47 -67 7 c-80 8 -199 66 -189 92 3 8 6 25 6 38 0
19 10 27 53 44 65 25 86 26 94 4z m338 -4 c49 -18 55 -24 57 -50 0 -16 1 -34
2 -41 2 -23 -116 -75 -186 -82 l-68 -7 0 47 c0 40 2 45 15 34 9 -7 17 -11 19
-9 16 20 64 98 69 112 8 22 24 22 92 -4z m-438 -166 c29 -16 53 -32 53 -36 0
-17 -32 -18 -64 -3 -19 9 -39 16 -45 16 -6 0 -11 11 -11 25 0 31 3 31 67 -2z
m513 -7 c0 -31 -4 -35 -42 -49 -24 -8 -51 -18 -60 -22 -15 -6 -18 -2 -18 21 0
24 8 33 48 55 64 36 72 35 72 -5z m-150 -60 c0 -21 -6 -36 -15 -40 -12 -4 -15
3 -15 34 0 29 4 40 15 40 10 0 15 -10 15 -34z m-62 -13 l-3 -37 -110 -27
c-187 -47 -243 -55 -262 -37 -12 13 -14 28 -8 73 6 55 7 57 33 50 14 -3 31
-13 37 -22 10 -13 17 -14 49 -3 53 17 172 38 224 39 l43 1 -3 -37z m226 -15
c10 -39 7 -75 -9 -88 -12 -10 -33 -9 -107 4 -50 9 -96 20 -102 23 -6 4 10 12
34 19 25 7 72 24 105 38 73 31 71 31 79 4z m-249 -88 c14 -6 -4 -9 -55 -9 -51
0 -69 3 -55 9 11 5 36 9 55 9 19 0 44 -4 55 -9z"/>
<path d="M440 655 c0 -8 7 -15 15 -15 8 0 15 7 15 15 0 8 -7 15 -15 15 -8 0
-15 -7 -15 -15z"/>
<path d="M530 655 c0 -8 7 -15 15 -15 8 0 15 7 15 15 0 8 -7 15 -15 15 -8 0
-15 -7 -15 -15z"/>
<path d="M442 573 c2 -10 15 -24 31 -33 24 -13 30 -13 54 0 29 16 44 50 22 50
-7 0 -21 -7 -31 -17 -17 -15 -19 -15 -36 0 -24 22 -44 22 -40 0z"/>
<path d="M150 723 c0 -5 4 -25 9 -45 8 -34 7 -38 -10 -38 -30 0 -23 -23 32
-107 64 -99 84 -104 65 -15 -7 28 -5 32 13 32 12 0 21 4 21 9 0 19 -103 171
-116 171 -8 0 -14 -3 -14 -7z m80 -133 c0 -18 -35 -20 -48 -3 -11 15 -10 19 5
24 18 6 43 -6 43 -21z"/>
<path d="M771 649 c-28 -44 -51 -85 -51 -90 0 -5 9 -9 21 -9 18 0 20 -4 13
-32 -19 -89 1 -84 65 15 55 84 62 107 32 107 -17 0 -18 4 -10 38 11 49 11 52
-5 52 -7 0 -36 -36 -65 -81z m48 -60 c-11 -21 -17 -23 -38 -10 -21 13 3 41 29
34 16 -4 18 -9 9 -24z"/>
<path d="M3 507 c-3 -5 4 -18 16 -28 12 -10 21 -26 19 -36 -2 -14 11 -21 62
-35 80 -22 106 -16 70 15 -14 12 -25 31 -25 41 0 16 -13 23 -68 37 -46 11 -69
13 -74 6z m102 -57 c-3 -5 -10 -10 -16 -10 -5 0 -9 5 -9 10 0 6 7 10 16 10 8
0 12 -4 9 -10z"/>
<path d="M920 501 c-52 -14 -65 -21 -65 -37 0 -10 -11 -29 -25 -41 -36 -31
-10 -37 70 -15 51 14 64 21 62 35 -2 10 7 26 20 37 37 30 11 39 -62 21z m0
-51 c0 -5 -4 -10 -10 -10 -5 0 -10 5 -10 10 0 6 5 10 10 10 6 0 10 -4 10 -10z"/>
</g>
</svg>
