<?xml version="1.0" standalone="no"?>
<!DOCTYPE svg PUBLIC "-//W3C//DTD SVG 20010904//EN"
 "http://www.w3.org/TR/2001/REC-SVG-20010904/DTD/svg10.dtd">
<svg version="1.0" xmlns="http://www.w3.org/2000/svg"
 width="498.000000pt" height="498.000000pt" viewBox="0 0 498.000000 498.000000"
 preserveAspectRatio="xMidYMid meet">

<g transform="translate(0.000000,498.000000) scale(0.100000,-0.100000)"
fill="#000000" stroke="none">
<path d="M2145 4458 c-535 -95 -1005 -445 -1253 -933 -129 -252 -187 -495
-187 -775 0 -290 51 -511 176 -768 l59 -122 111 0 c60 0 108 3 106 8 -2 4 -25
43 -52 86 -86 143 -150 316 -187 499 -32 161 -32 436 1 587 135 634 613 1107
1244 1232 90 18 146 22 287 22 141 0 197 -4 287 -22 554 -110 1008 -506 1188
-1036 81 -240 103 -518 59 -766 -32 -178 -117 -402 -207 -543 -20 -32 -37 -60
-37 -62 0 -3 50 -5 110 -5 l110 0 59 123 c136 282 188 549 170 867 -46 799
-651 1472 -1446 1609 -163 28 -437 28 -598 -1z"/>
<path d="M2467 3794 c-64 -120 -64 -119 -98 -122 -74 -6 -198 -35 -274 -63
-311 -117 -538 -371 -627 -703 -32 -119 -32 -346 0 -466 56 -206 139 -357 272
-492 81 -83 88 -88 128 -88 59 0 54 18 -22 79 -192 153 -336 468 -336 735 0
279 146 570 373 742 121 92 355 184 468 184 85 0 98 8 135 81 l34 69 268 -1
c147 0 284 -3 304 -7 l37 -7 -88 -136 -89 -137 42 -30 c128 -92 233 -219 300
-365 51 -109 71 -179 87 -305 43 -342 -149 -735 -425 -871 l-61 -30 76 -1 c69
0 80 3 118 31 105 75 232 243 289 381 58 138 76 235 75 398 -1 122 -5 161 -26
242 -29 112 -86 238 -146 327 -43 62 -153 180 -205 219 l-29 22 93 142 c51 79
98 151 103 160 6 9 9 19 6 22 -3 3 -176 8 -386 12 l-381 7 -15 -29z"/>
<path d="M2553 3688 c-5 -7 -47 -85 -93 -173 -46 -88 -97 -187 -115 -220 -18
-33 -67 -127 -110 -210 -43 -82 -102 -196 -132 -252 -30 -57 -51 -107 -48
-113 4 -6 68 -9 160 -9 84 1 158 -2 164 -6 6 -3 11 -13 11 -22 0 -8 -77 -167
-172 -352 -94 -185 -186 -365 -205 -401 -20 -39 -28 -66 -22 -69 13 -4 -12
-31 305 319 142 157 357 392 476 523 120 131 218 242 218 246 0 5 -71 12 -157
15 -208 9 -233 13 -233 37 0 10 97 168 215 350 119 182 215 333 213 334 -2 1
-107 6 -234 10 -187 5 -232 4 -241 -7z"/>
<path d="M2270 3531 c-175 -37 -335 -126 -452 -250 -107 -113 -159 -198 -209
-343 -29 -84 -33 -107 -36 -238 -4 -131 -2 -155 21 -245 32 -123 107 -277 179
-365 46 -56 179 -170 199 -170 4 0 61 110 127 245 66 134 152 303 191 376 44
81 68 135 62 141 -5 5 -84 8 -180 6 -95 -2 -172 -2 -172 0 0 2 95 192 210 422
116 231 210 424 210 430 0 14 -52 11 -150 -9z"/>
<path d="M2799 3273 c-52 -82 -111 -172 -131 -202 -21 -30 -38 -57 -38 -61 0
-4 87 -10 193 -14 105 -4 202 -9 214 -13 20 -4 6 -23 -125 -167 -81 -88 -149
-163 -152 -166 -3 -3 -120 -131 -259 -285 -140 -154 -275 -302 -300 -330 -26
-27 -69 -74 -96 -103 -39 -43 -46 -55 -34 -63 7 -5 151 -9 318 -9 279 0 311 2
380 21 95 26 201 76 264 124 106 81 230 278 274 435 14 51 18 101 17 230 0
154 -2 171 -28 250 -54 163 -133 289 -242 390 -61 55 -137 110 -152 110 -6 0
-52 -66 -103 -147z"/>
<path d="M422 1378 l3 -113 108 -3 107 -3 0 31 0 30 -75 0 c-60 0 -75 3 -75
15 0 12 13 15 60 15 57 0 60 1 60 25 0 24 -3 25 -60 25 -53 0 -60 2 -60 20 0
18 7 20 75 20 73 0 75 1 75 25 l0 25 -110 0 -111 0 3 -112z"/>
<path d="M720 1375 l0 -115 110 0 110 0 0 30 0 30 -75 0 -75 0 0 85 0 85 -35
0 -35 0 0 -115z"/>
<path d="M1020 1375 l0 -116 108 3 107 3 3 27 3 27 -75 3 c-90 4 -101 21 -19
28 50 4 58 8 61 27 3 20 -1 22 -60 25 -48 2 -63 7 -63 18 0 12 17 16 78 18 74
3 77 4 77 27 l0 25 -110 0 -110 0 0 -115z"/>
<path d="M1363 1480 c-52 -21 -69 -134 -28 -180 27 -30 85 -44 149 -36 54 7
56 9 56 37 l0 29 -58 -6 c-75 -8 -102 5 -102 49 0 55 11 62 90 60 l71 -2 -3
27 c-3 26 -5 27 -78 29 -41 1 -85 -2 -97 -7z"/>
<path d="M1602 1468 c2 -19 10 -24 45 -26 l42 -3 3 -87 3 -87 33 -3 32 -3 0
90 0 91 45 0 c41 0 45 2 45 25 l0 25 -126 0 c-124 0 -125 0 -122 -22z"/>
<path d="M1927 1483 c-4 -3 -7 -55 -7 -115 l0 -109 33 3 c29 3 32 6 35 41 3
33 6 37 31 37 22 0 34 -9 55 -40 19 -28 33 -40 51 -40 34 0 37 11 14 49 -17
29 -18 34 -4 47 9 9 15 33 15 59 0 63 -21 75 -131 75 -47 0 -89 -3 -92 -7z
m147 -49 c9 -3 16 -12 16 -20 0 -10 -14 -14 -50 -14 -43 0 -50 3 -50 20 0 16
7 20 34 20 19 0 41 -3 50 -6z"/>
<path d="M2284 1481 c-35 -15 -54 -52 -54 -101 0 -54 20 -87 66 -106 66 -28
155 -10 188 37 25 36 21 112 -8 146 -22 25 -31 28 -97 30 -41 2 -84 -1 -95 -6z
m120 -51 c22 -8 26 -16 26 -49 0 -44 -18 -61 -65 -61 -47 0 -65 17 -65 61 0
32 4 41 23 49 30 12 51 12 81 0z"/>
<path d="M2743 1480 c-23 -9 -37 -45 -31 -77 4 -25 65 -53 116 -53 23 0 42 -4
42 -9 0 -17 -40 -23 -101 -16 l-59 7 0 -30 c0 -29 2 -31 55 -37 72 -9 122 1
151 30 49 49 18 104 -61 112 -71 7 -84 11 -65 24 9 5 43 7 78 3 57 -6 62 -5
62 13 0 10 -5 24 -12 31 -14 14 -142 15 -175 2z"/>
<path d="M3014 1378 l1 -113 110 0 110 0 3 28 3 27 -80 0 -81 0 0 85 0 85 -34
0 -34 0 2 -112z"/>
<path d="M3310 1410 c0 -57 5 -88 16 -105 21 -32 80 -49 136 -41 78 12 98 42
98 150 l0 76 -35 0 -34 0 -3 -77 c-3 -74 -4 -78 -30 -87 -18 -7 -35 -6 -53 2
-24 11 -25 16 -25 87 l0 75 -35 0 -35 0 0 -80z"/>
<path d="M3630 1466 c0 -22 5 -25 43 -28 l42 -3 3 -88 3 -88 32 3 32 3 3 88 3
87 39 0 c36 0 40 3 40 25 l0 25 -120 0 -120 0 0 -24z"/>
<path d="M3967 1470 c-66 -52 -9 -120 101 -120 23 0 32 -4 29 -12 -3 -9 -26
-12 -81 -10 l-76 3 0 -30 c0 -29 1 -30 64 -36 118 -13 181 25 162 98 -7 29
-48 47 -107 47 -21 0 -40 4 -43 9 -10 16 26 22 86 15 l60 -7 -4 29 -3 29 -81
3 c-69 2 -84 0 -107 -18z"/>
<path d="M4252 1378 l3 -113 30 0 c28 0 30 3 33 43 2 25 8 42 15 42 7 0 33
-20 57 -45 31 -32 52 -45 72 -45 38 0 35 13 -13 70 l-41 49 41 50 c22 27 41
52 41 55 0 3 -15 6 -34 6 -28 0 -40 -8 -70 -45 -21 -25 -44 -45 -52 -45 -10 0
-14 13 -14 45 0 45 0 45 -35 45 l-36 0 3 -112z"/>
<path d="M1857 973 c-4 -3 -7 -15 -7 -25 0 -17 25 -18 594 -18 495 0 595 2
599 14 14 35 -8 36 -598 36 -320 0 -585 -3 -588 -7z"/>
</g>
</svg>
