<?xml version="1.0" standalone="no"?>
<!DOCTYPE svg PUBLIC "-//W3C//DTD SVG 20010904//EN"
 "http://www.w3.org/TR/2001/REC-SVG-20010904/DTD/svg10.dtd">
<svg version="1.0" xmlns="http://www.w3.org/2000/svg"
 width="100.000000pt" height="100.000000pt" viewBox="0 0 100.000000 100.000000"
 preserveAspectRatio="xMidYMid meet">

<g transform="translate(0.000000,100.000000) scale(0.100000,-0.100000)"
fill="#000000" stroke="none">
<path d="M367 946 c-23 -24 -42 -36 -61 -36 -35 0 -76 -41 -76 -76 0 -19 -12
-38 -36 -61 -33 -30 -36 -36 -30 -70 9 -48 9 -78 0 -126 -6 -34 -3 -40 30 -70
24 -23 36 -42 36 -61 0 -16 11 -38 26 -53 l26 -26 -52 -113 c-29 -62 -49 -117
-45 -123 3 -6 37 -11 75 -11 l68 0 42 -50 c23 -27 46 -50 52 -50 5 0 24 32 41
70 17 39 34 70 37 70 4 0 21 -31 38 -70 17 -38 35 -70 40 -70 6 0 29 23 52 50
l42 50 68 0 c39 0 72 5 76 11 3 6 -17 61 -46 124 l-52 112 26 26 c15 15 26 37
26 53 0 19 12 38 36 61 33 30 36 36 30 70 -9 48 -9 78 0 126 6 34 3 40 -30 70
-24 23 -36 42 -36 61 0 35 -41 76 -76 76 -19 0 -38 12 -61 36 -30 33 -36 36
-70 30 -21 -4 -49 -7 -63 -7 -14 0 -42 3 -63 7 -34 6 -40 3 -70 -30z m99 -18
c26 -9 41 -9 74 2 41 14 42 13 71 -18 17 -18 42 -34 57 -38 57 -12 54 -9 66
-66 4 -15 20 -40 38 -57 31 -29 31 -30 18 -70 -11 -34 -11 -48 0 -82 13 -40
13 -41 -18 -70 -18 -17 -34 -42 -38 -57 -12 -57 -9 -54 -66 -66 -15 -4 -40
-20 -57 -38 -29 -31 -30 -31 -70 -18 -34 11 -48 11 -82 0 -40 -13 -41 -13 -70
18 -17 18 -42 34 -57 38 -57 12 -54 9 -66 66 -4 15 -20 40 -38 57 -31 29 -31
30 -18 70 11 34 11 48 0 82 -13 40 -13 41 18 70 18 17 34 42 38 57 12 57 9 54
67 66 15 4 39 20 54 36 30 34 34 35 79 18z m-34 -625 c18 3 46 9 61 13 l28 7
-14 -34 c-8 -19 -32 -74 -53 -122 l-37 -88 -36 40 c-33 37 -41 41 -92 43 l-56
3 49 104 49 104 34 -37 c30 -33 39 -37 67 -33z m288 -35 l48 -103 -56 -3 c-53
-2 -60 -6 -92 -43 l-35 -41 -31 74 c-29 69 -29 75 -16 111 12 29 20 37 40 37
16 0 36 13 56 35 17 19 32 35 34 35 2 0 25 -46 52 -102z"/>
<path d="M566 654 c-43 -68 -83 -124 -88 -124 -6 0 -37 25 -70 55 -56 52 -78
61 -78 31 0 -7 36 -45 80 -85 l79 -72 24 39 c14 21 54 83 89 137 35 55 67 105
71 112 4 7 0 16 -10 22 -16 8 -29 -8 -97 -115z"/>
</g>
</svg>
