<?xml version="1.0" standalone="no"?>
<!DOCTYPE svg PUBLIC "-//W3C//DTD SVG 20010904//EN"
 "http://www.w3.org/TR/2001/REC-SVG-20010904/DTD/svg10.dtd">
<svg version="1.0" xmlns="http://www.w3.org/2000/svg"
 width="100.000000pt" height="100.000000pt" viewBox="0 0 100.000000 100.000000"
 preserveAspectRatio="xMidYMid meet">

<g transform="translate(0.000000,100.000000) scale(0.100000,-0.100000)"
fill="#000000" stroke="none">
<path d="M200 987 c-37 -13 -49 -44 -15 -39 151 20 201 7 268 -68 93 -103 90
-228 -8 -325 -97 -98 -222 -101 -325 -8 -89 80 -106 216 -39 304 l19 24 0 -32
c0 -26 4 -33 20 -33 18 0 20 7 20 65 l0 65 -65 0 c-58 0 -65 -2 -65 -20 0 -15
7 -20 25 -20 l25 0 -26 -51 c-34 -69 -41 -140 -20 -214 32 -110 148 -195 266
-195 150 0 280 130 280 280 0 183 -191 325 -360 267z"/>
<path d="M732 988 c-7 -7 -12 -25 -12 -40 l0 -28 -95 0 c-93 0 -95 -1 -83 -20
11 -17 24 -20 95 -20 l83 0 0 -28 c0 -37 17 -52 60 -52 43 0 60 15 60 52 0 27
2 28 50 28 l50 0 0 -70 0 -70 -170 0 c-163 0 -170 -1 -170 -20 0 -19 7 -20
170 -20 l170 0 0 -310 0 -310 -420 0 -420 0 0 190 c0 179 -1 190 -20 200 -20
11 -20 8 -20 -198 0 -148 3 -211 12 -220 17 -17 879 -17 896 0 17 17 17 839 0
856 -7 7 -38 12 -70 12 -57 0 -58 1 -58 28 0 15 -5 33 -12 40 -16 16 -80 16
-96 0z m68 -88 c0 -53 -2 -60 -20 -60 -18 0 -20 7 -20 60 0 53 2 60 20 60 18
0 20 -7 20 -60z"/>
<path d="M267 894 c-4 -4 -7 -47 -7 -95 l0 -88 46 -36 c51 -38 59 -41 70 -23
4 6 -10 26 -34 47 -42 36 -42 36 -44 115 -3 73 -13 98 -31 80z"/>
<path d="M576 604 c-9 -24 -9 -24 29 -24 l35 0 0 -50 0 -50 -70 0 -70 0 0 -70
0 -70 -50 0 -50 0 0 41 c0 33 -3 40 -16 35 -9 -3 -18 -6 -20 -6 -2 0 -4 -16
-4 -35 l0 -35 -50 0 c-48 0 -50 1 -50 29 0 20 -6 30 -20 34 -19 5 -20 0 -20
-119 l0 -124 300 0 300 0 0 230 0 230 -119 0 c-99 0 -120 -3 -125 -16z m204
-74 l0 -50 -50 0 -50 0 0 50 0 50 50 0 50 0 0 -50z m-140 -140 l0 -50 -50 0
-50 0 0 50 0 50 50 0 50 0 0 -50z m140 0 l0 -50 -50 0 -50 0 0 50 0 50 50 0
50 0 0 -50z m-420 -140 l0 -50 -50 0 -50 0 0 50 0 50 50 0 50 0 0 -50z m140 0
l0 -50 -50 0 -50 0 0 50 0 50 50 0 50 0 0 -50z m140 0 l0 -50 -50 0 -50 0 0
50 0 50 50 0 50 0 0 -50z m140 0 l0 -50 -50 0 -50 0 0 50 0 50 50 0 50 0 0
-50z"/>
</g>
</svg>
